<?xml version="1.0" standalone="no"?>
<svg width="500" height="500" version="1.1" xmlns="http://www.w3.org/2000/svg"    xmlns:xlink="http://www.w3.org/1999/xlink">
<rect x="0" y="0" width="500" height="700" stroke="black" fill="none" stroke-width="1"/>
 <polyline points="130.000000 50.000000 134.000000 54.000000 138.000000 58.000000 142.000000 62.000000 146.000000 66.000000 150.000000 70.000000 154.000000 74.000000 158.000000 78.000000 162.000000 82.000000 166.000000 86.000000 170.000000 90.000000 174.000000 94.000000 178.000000 98.000000 182.000000 102.000000 186.000000 106.000000 190.000000 110.000000 194.000000 114.000000 198.000000 118.000000 202.000000 122.000000 206.000000 126.000000 210.000000 130.000000 214.000000 134.000000 218.000000 138.000000 222.000000 142.000000 226.000000 146.000000 230.000000 150.000000 234.000000 154.000000 238.000000 158.000000 242.000000 162.000000 246.000000 166.000000 250.000000 170.000000 254.000000 174.000000 258.000000 178.000000 262.000000 182.000000 266.000000 186.000000 270.000000 190.000000 274.000000 194.000000 278.000000 198.000000 282.000000 202.000000 286.000000 206.000000 290.000000 210.000000 294.000000 214.000000 298.000000 218.000000 302.000000 222.000000 306.000000 226.000000 310.000000 230.000000 314.000000 234.000000 318.000000 238.000000 322.000000 242.000000 326.000000 246.000000 330.000000 250.000000 334.000000 254.000000 338.000000 258.000000 342.000000 262.000000 346.000000 266.000000 350.000000 270.000000 354.000000 274.000000 358.000000 278.000000 362.000000 282.000000 366.000000 286.000000 370.000000 290.000000 374.000000 294.000000 378.000000 298.000000 382.000000 302.000000 386.000000 306.000000 390.000000 310.000000 394.000000 314.000000 398.000000 318.000000 402.000000 322.000000 406.000000 326.000000 410.000000 330.000000 414.000000 334.000000 418.000000 338.000000 422.000000 342.000000 426.000000 346.000000 430.000000 350.000000 434.000000 354.000000 438.000000 358.000000 442.000000 362.000000 446.000000 366.000000 450.000000 370.000000  " stroke="blue" fill="none" stroke-width="5"/> 
<line x1="50" x2="450" y1="450" y2="450" stroke="rgb(100,100,100)" stroke-width="2"/>
<line x1="50" x2="50" y1="450" y2="50" stroke="rgb(100,100,100)" stroke-width="2"/>
<text x="0" y="500.000000" fill="black">0.00</text><text x="440.000000" y="500.000000" fill="black">1.00</text><text x="0" y="50.000000" fill="black">1.00</text><text x="0" y="450.000000" fill="black">0.00</text></svg>
