<?xml version="1.0" standalone="no"?>
<svg width="500" height="500" version="1.1" xmlns="http://www.w3.org/2000/svg"    xmlns:xlink="http://www.w3.org/1999/xlink">
<rect x="0" y="0" width="500" height="700" stroke="black" fill="none" stroke-width="1"/>
 <polyline points="250.000000 52.985075 254.000000 56.985075 258.000000 60.985075 262.000000 64.985075 266.000000 68.985075 270.000000 72.985075 274.000000 76.985075 278.000000 80.985075 282.000000 84.985075 286.000000 88.985075 290.000000 92.985075 294.000000 96.985075 298.000000 100.985075 302.000000 104.985075 306.000000 108.985075 310.000000 112.985075 314.000000 116.985075 318.000000 120.985075 322.000000 124.985075 326.000000 128.985075 330.000000 132.985075 334.000000 136.985075 338.000000 140.985075 342.000000 144.985075 346.000000 148.985075 350.000000 152.985075 354.000000 156.985075 358.000000 160.985075 362.000000 164.985075 366.000000 168.985075 370.000000 172.985075 374.000000 176.985075 378.000000 180.985075 382.000000 184.985075 386.000000 188.985075 390.000000 192.985075 394.000000 196.985075 398.000000 200.985075 402.000000 204.985075 406.000000 208.985075 410.000000 212.985075 414.000000 216.985075 418.000000 220.985075 422.000000 224.985075 426.000000 228.985075 430.000000 232.985075 434.000000 236.985075 438.000000 240.985075 442.000000 244.985075 446.000000 248.985075 450.000000 252.985075  " stroke="blue" fill="none" stroke-width="5"/>
<line x1="50" x2="450" y1="450" y2="450" stroke="rgb(100,100,100)" stroke-width="2"/>
<line x1="50" x2="50" y1="450" y2="50" stroke="rgb(100,100,100)" stroke-width="2"/>
<text x="5" y="500.000000" fill="black">0.00</text>
<text x="445.000000" y="500.000000" fill="black">1.00</text>
<text x="250" y="500.000000" fill="black"> x0</text>
<text x="5" y="50.000000" fill="black">1.00</text>
<text x="5" y="450.000000" fill="black">0.00</text>
<text x="5" y="250" fill="black">x1</text>
<text x="250.000000" y="250.000000" fill="blue">b+w0*x0+w1*x1=0</text>
<circle cx="50" cy="50" r="15" stroke="rgb(0,255,0)" fill="rgb(0,255,0)" stroke-width="1"/>
<circle cx="50" cy="450" r="15" stroke="rgb(0,255,0)" fill="rgb(0,255,0)" stroke-width="1"/>
<circle cx="450" cy="50" r="15" stroke="rgb(255,0,0)" fill="rgb(255,0,0)" stroke-width="1"/>
<circle cx="450" cy="450" r="15" stroke="rgb(0,255,0)" fill="rgb(0,255,0)" stroke-width="1"/>
</svg>
